<svg xmlns="http://www.w3.org/2000/svg" viewBox="0 0 390 280" preserveAspectRatio="xMidYMax slice" xmlns:c2pa="http://c2pa.org/manifest"><metadata><c2pa:manifest>AAAWgmp1bWIAAAAeanVtZGMycGEAEQAQgAAAqgA4m3EDYzJwYQAAABZcanVtYgAAAEdqdW1kYzJtYQARABCAAACqADibcQN1cm46YzJwYToxM2YwMGZlOS04ZmM1LTRiY2ItYTA2NC00NmY5N2E4NTI1YjUAAAADl2p1bWIAAAApanVtZGMyYXMAEQAQgAAAqgA4m3EDYzJwYS5hc3NlcnRpb25zAAAAALxqdW1iAAAARGp1bWRjYm9yABEAEIAAAKoAOJtxE2MycGEuaW5ncmVkaWVudC52MwAAAAAYYzJzaI7wUgrY/Vn/4rfRkDtyZGAAAABwY2JvcqNpZGM6Zm9ybWF0bWltYWdlL3N2Zyt4bWxqaW5zdGFuY2VJRHgseG1wOmlpZDo5N2VjNjZjMi01NWI0LTQxOTAtODc2Ny1iNTUzMThjNGU5YzJscmVsYXRpb25zaGlwaHBhcmVudE9mAAAB4mp1bWIAAABBanVtZGNib3IAEQAQgAAAqgA4m3ETYzJwYS5hY3Rpb25zLnYyAAAAABhjMnNokWTOQX/bdFTHQdb6DSvrUAAAAZljYm9yomdhY3Rpb25zgqJmYWN0aW9ua2MycGEub3BlbmVkanBhcmFtZXRlcnOha2luZ3JlZGllbnRzgaJjdXJseC1zZWxmI2p1bWJmPWMycGEuYXNzZXJ0aW9ucy9jMnBhLmluZ3JlZGllbnQudjNkaGFzaFggZsIoiZIbwgMP15mWPnOFRHPWGgOc++WvW4DlXymrdhmkZmFjdGlvbngdY29tLmFudGhyb3BpYy5jbGF1ZGUucHJvdmlkZWRqcGFyYW1ldGVyc6F4H2NvbS5hbnRocm9waWMub3JpZ2luLWNvbmZpZGVuY2VndW5rbm93bmtkZXNjcmlwdGlvbnhmQ2xhdWRlIHByb3ZpZGVkIHRoaXMgZmlsZSBhdCB0aGUgcmVxdWVzdCBvZiBhIHVzZXIgYW5kIG1heSBoYXZlIGNyZWF0ZWQgb3IgbW9kaWZpZWQgdGhlIGZpbGUgY29udGVudHMubXNvZnR3YXJlQWdlbnShZG5hbWVmQ2xhdWRlcmFsbEFjdGlvbnNJbmNsdWRlZPUAAADIanVtYgAAAEBqdW1kY2JvcgARABCAAACqADibcRNjMnBhLmhhc2guZGF0YQAAAAAYYzJzaNxuXSEp2rSQqmsY7xFYli8AAACAY2JvcqVjYWxnZnNoYTI1NmNwYWRNAAAAAAAAAAAAAAAAAGRoYXNoWCAYhva14hg2ryHLDHMsZo4CdCnmfdk/1hZVYxI+R3v4e2RuYW1lbmp1bWJmIG1hbmlmZXN0amV4Y2x1c2lvbnOBomVzdGFydBiiZmxlbmd0aBkeBAAAAj5qdW1iAAAAJ2p1bWRjMmNsABEAEIAAAKoAOJtxA2MycGEuY2xhaW0udjIAAAACD2Nib3KlY2FsZ2ZzaGEyNTZpc2lnbmF0dXJleE1zZWxmI2p1bWJmPS9jMnBhL3VybjpjMnBhOjEzZjAwZmU5LThmYzUtNGJjYi1hMDY0LTQ2Zjk3YTg1MjViNS9jMnBhLnNpZ25hdHVyZWppbnN0YW5jZUlEeCx4bXA6aWlkOmM5ZGY1NjJkLWRhMDctNDFmMS1iN2I3LWEzZTYwMWMxMzlmZXJjcmVhdGVkX2Fzc2VydGlvbnODomN1cmx4LXNlbGYjanVtYmY9YzJwYS5hc3NlcnRpb25zL2MycGEuaW5ncmVkaWVudC52M2RoYXNoWCBmwiiJkhvCAw/XmZY+c4VEc9YaA5z75a9bgOVfKat2GaJjdXJseCpzZWxmI2p1bWJmPWMycGEuYXNzZXJ0aW9ucy9jMnBhLmFjdGlvbnMudjJkaGFzaFggfBI5amYpGFd/BBufSvZtkporCZH22LoQ2d2ZyfgKz5SiY3VybHgpc2VsZiNqdW1iZj1jMnBhLmFzc2VydGlvbnMvYzJwYS5oYXNoLmRhdGFkaGFzaFggVVx/RDjhSO7oOLhMLpv3WVn3c84PzgCFbB9PR1+LGqt0Y2xhaW1fZ2VuZXJhdG9yX2luZm+jZG5hbWVvQW50aHJvcGljIEZpbGVzZ3ZlcnNpb25lMS4wLjBrc3BlY1ZlcnNpb25lMi40LjAAABA4anVtYgAAAChqdW1kYzJjcwARABCAAACqADibcQNjMnBhLnNpZ25hdHVyZQAAABAIY2JvctKEWQISogEmGCFZAgowggIGMIIBjaADAgECAhRA5aAK7sI50L64g/oGQgU9Z1UTADAKBggqhkjOPQQDAzBJMRcwFQYDVQQKEw5BbnRocm9waWMsIFBCQzEuMCwGA1UEAxMlQW50aHJvcGljIENvbnRlbnQgQ3JlZGVudGlhbHMgUm9vdCBDQTAeFw0yNjA4MDcxODQzNTZaFw0yODA4MDYxOTQzNTZaMEQxFzAVBgNVBAoTDkFudGhyb3BpYywgUEJDMSkwJwYDVQQDEyBBbnRocm9waWMgQ2xhdWRlIENvbnRlbnQgU2lnbmluZzBZMBMGByqGSM49AgEGCCqGSM49AwEHA0IABJh6CmvLUBgFFNU0vUKlOVtE6djd17L5SuwX0LemFisBM3dkd/3cyjxFA3Qo5S46fX0/ihY0VZ7mfb9KF703t5OjWDBWMA4GA1UdDwEB/wQEAwIHgDAVBgNVHSUEDjAMBgorBgEEAYPoXgIBMAwGA1UdEwEB/wQCMAAwHwYDVR0jBBgwFoAUzlHiBIFOZFsj+OPEz5o+nMHXXMIwCgYIKoZIzj0EAwMDZwAwZAIwMXMdFJ4BetLLVY7ORuE9noqbbAZOZn/aArXyTwFAZfKrPzxF2vPoJNf1+UCdg1XGAjBwX1zd9WGqYkqmL5SFqw1QySjr1zJfpJM9+1rdDwSPLMOPOjKuiXjoU/pUUeG9RwmhY3BhZFkNngAAAAAAAAAAAAAAAAAAAAAAAAAAAAAAAAAAAAAAAAAAAAAAAAAAAAAAAAAAAAAAAAAAAAAAAAAAAAAAAAAAAAAAAAAAAAAAAAAAAAAAAAAAAAAAAAAAAAAAAAAAAAAAAAAAAAAAAAAAAAAAAAAAAAAAAAAAAAAAAAAAAAAAAAAAAAAAAAAAAAAAAAAAAAAAAAAAAAAAAAAAAAAAAAAAAAAAAAAAAAAAAAAAAAAAAAAAAAAAAAAAAAAAAAAAAAAAAAAAAAAAAAAAAAAAAAAAAAAAAAAAAAAAAAAAAAAAAAAAAAAAAAAAAAAAAAAAAAAAAAAAAAAAAAAAAAAAAAAAAAAAAAAAAAAAAAAAAAAAAAAAAAAAAAAAAAAAAAAAAAAAAAAAAAAAAAAAAAAAAAAAAAAAAAAAAAAAAAAAAAAAAAAAAAAAAAAAAAAAAAAAAAAAAAAAAAAAAAAAAAAAAAAAAAAAAAAAAAAAAAAAAAAAAAAAAAAAAAAAAAAAAAAAAAAAAAAAAAAAAAAAAAAAAAAAAAAAAAAAAAAAAAAAAAAAAAAAAAAAAAAAAAAAAAAAAAAAAAAAAAAAAAAAAAAAAAAAAAAAAAAAAAAAAAAAAAAAAAAAAAAAAAAAAAAAAAAAAAAAAAAAAAAAAAAAAAAAAAAAAAAAAAAAAAAAAAAAAAAAAAAAAAAAAAAAAAAAAAAAAAAAAAAAAAAAAAAAAAAAAAAAAAAAAAAAAAAAAAAAAAAAAAAAAAAAAAAAAAAAAAAAAAAAAAAAAAAAAAAAAAAAAAAAAAAAAAAAAAAAAAAAAAAAAAAAAAAAAAAAAAAAAAAAAAAAAAAAAAAAAAAAAAAAAAAAAAAAAAAAAAAAAAAAAAAAAAAAAAAAAAAAAAAAAAAAAAAAAAAAAAAAAAAAAAAAAAAAAAAAAAAAAAAAAAAAAAAAAAAAAAAAAAAAAAAAAAAAAAAAAAAAAAAAAAAAAAAAAAAAAAAAAAAAAAAAAAAAAAAAAAAAAAAAAAAAAAAAAAAAAAAAAAAAAAAAAAAAAAAAAAAAAAAAAAAAAAAAAAAAAAAAAAAAAAAAAAAAAAAAAAAAAAAAAAAAAAAAAAAAAAAAAAAAAAAAAAAAAAAAAAAAAAAAAAAAAAAAAAAAAAAAAAAAAAAAAAAAAAAAAAAAAAAAAAAAAAAAAAAAAAAAAAAAAAAAAAAAAAAAAAAAAAAAAAAAAAAAAAAAAAAAAAAAAAAAAAAAAAAAAAAAAAAAAAAAAAAAAAAAAAAAAAAAAAAAAAAAAAAAAAAAAAAAAAAAAAAAAAAAAAAAAAAAAAAAAAAAAAAAAAAAAAAAAAAAAAAAAAAAAAAAAAAAAAAAAAAAAAAAAAAAAAAAAAAAAAAAAAAAAAAAAAAAAAAAAAAAAAAAAAAAAAAAAAAAAAAAAAAAAAAAAAAAAAAAAAAAAAAAAAAAAAAAAAAAAAAAAAAAAAAAAAAAAAAAAAAAAAAAAAAAAAAAAAAAAAAAAAAAAAAAAAAAAAAAAAAAAAAAAAAAAAAAAAAAAAAAAAAAAAAAAAAAAAAAAAAAAAAAAAAAAAAAAAAAAAAAAAAAAAAAAAAAAAAAAAAAAAAAAAAAAAAAAAAAAAAAAAAAAAAAAAAAAAAAAAAAAAAAAAAAAAAAAAAAAAAAAAAAAAAAAAAAAAAAAAAAAAAAAAAAAAAAAAAAAAAAAAAAAAAAAAAAAAAAAAAAAAAAAAAAAAAAAAAAAAAAAAAAAAAAAAAAAAAAAAAAAAAAAAAAAAAAAAAAAAAAAAAAAAAAAAAAAAAAAAAAAAAAAAAAAAAAAAAAAAAAAAAAAAAAAAAAAAAAAAAAAAAAAAAAAAAAAAAAAAAAAAAAAAAAAAAAAAAAAAAAAAAAAAAAAAAAAAAAAAAAAAAAAAAAAAAAAAAAAAAAAAAAAAAAAAAAAAAAAAAAAAAAAAAAAAAAAAAAAAAAAAAAAAAAAAAAAAAAAAAAAAAAAAAAAAAAAAAAAAAAAAAAAAAAAAAAAAAAAAAAAAAAAAAAAAAAAAAAAAAAAAAAAAAAAAAAAAAAAAAAAAAAAAAAAAAAAAAAAAAAAAAAAAAAAAAAAAAAAAAAAAAAAAAAAAAAAAAAAAAAAAAAAAAAAAAAAAAAAAAAAAAAAAAAAAAAAAAAAAAAAAAAAAAAAAAAAAAAAAAAAAAAAAAAAAAAAAAAAAAAAAAAAAAAAAAAAAAAAAAAAAAAAAAAAAAAAAAAAAAAAAAAAAAAAAAAAAAAAAAAAAAAAAAAAAAAAAAAAAAAAAAAAAAAAAAAAAAAAAAAAAAAAAAAAAAAAAAAAAAAAAAAAAAAAAAAAAAAAAAAAAAAAAAAAAAAAAAAAAAAAAAAAAAAAAAAAAAAAAAAAAAAAAAAAAAAAAAAAAAAAAAAAAAAAAAAAAAAAAAAAAAAAAAAAAAAAAAAAAAAAAAAAAAAAAAAAAAAAAAAAAAAAAAAAAAAAAAAAAAAAAAAAAAAAAAAAAAAAAAAAAAAAAAAAAAAAAAAAAAAAAAAAAAAAAAAAAAAAAAAAAAAAAAAAAAAAAAAAAAAAAAAAAAAAAAAAAAAAAAAAAAAAAAAAAAAAAAAAAAAAAAAAAAAAAAAAAAAAAAAAAAAAAAAAAAAAAAAAAAAAAAAAAAAAAAAAAAAAAAAAAAAAAAAAAAAAAAAAAAAAAAAAAAAAAAAAAAAAAAAAAAAAAAAAAAAAAAAAAAAAAAAAAAAAAAAAAAAAAAAAAAAAAAAAAAAAAAAAAAAAAAAAAAAAAAAAAAAAAAAAAAAAAAAAAAAAAAAAAAAAAAAAAAAAAAAAAAAAAAAAAAAAAAAAAAAAAAAAAAAAAAAAAAAAAAAAAAAAAAAAAAAAAAAAAAAAAAAAAAAAAAAAAAAAAAAAAAAAAAAAAAAAAAAAAAAAAAAAAAAAAAAAAAAAAAAAAAAAAAAAAAAAAAAAAAAAAAAAAAAAAAAAAAAAAAAAAAAAAAAAAAAAAAAAAAAAAAAAAAAAAAAAAAAAAAAAAAAAAAAAAAAAAAAAAAAAAAAAAAAAAAAAAAAAAAAAAAAAAAAAAAAAAAAAAAAAAAAAAAAAAAAAAAAAAAAAAAAAAAAAAAAAAAAAAAAAAAAAAAAAAAAAAAAAAAAAAAAAAAAAAAAAAAAAAAAAAAAAAAAAAAAAAAAAAAAAAAAAAAAAAAAAAAAAAAAAAAAAAAAAAAAAAAAAAAAAAAAAAAAAAAAAAAAAAAAAAAAAAAAAAAAAAAAAAAAAAAAAAAAAAAAAAAAAAAAAAAAAAAAAAAAAAAAAAAAAAAAAAAAAAAAAAAAAAAAAAAAAAAAAAAAAAAAAAAAAAAAAAAAAAAAAAAAAAAAAAAAAAAAAAAAAAAAAAAAAAAAAAAAAAAAAAAAAAAAAAAAAAAAAAAAAAAAAAAAAAAAAAAAAAAAAAAAAAAAAAAAAAAAAAAAAAAAAAAAAAAAAAAAAAAAAAAAAAAAAAAAAAAAAAAAAAAAAAAAAAAAAAAAAAAAAAAAAAAAAAAAAAAAAAAAAAAAAAAAAAAAAAAAAAAAAAAAAAAAAAAAAAAAAAAAAAAAAAAAAAAAAAAAAAAAAAAAAAAAAAAAAAAAAAAAAAAAAAAAAAAAAAAAAAAAAAAAAAAAAAAAAAAAAAAAAAAAAAAAAAAAAAAAAAAAAAAAAAAAAAAAAAAAAAAAAAAAAAAAAAAAAAAAAAAAAAAAAAAAAAAAAAAAAAAAAAAAAAAAAAAAAAAAAAAAAAAAAAAAAAAAAAAAAAAAAAAAAAAAAAAAAAAAAAAAAAAAAAAAAAAAAAAAAAAAAAAAAAAAAAAAAAAAAAAAAAAAAAAAAAAAAAAAAAAAAAAAAAAAAAAAAAAAAAAAAAAAAAAAAAAAAAAAAAAAAAAAAAAAAAAAAAAAAAAAAAAAAAAAAAAAAAAAAAAAAAAAAAAAAAAAAAAAAAAAAAAAAAAAAAAAAAAAAAAAAAAAAAAAAAAAAAAAAAAAAAAAAAAAAAAAAAAAAAAAAAAAAAAAAAAAAAAAAAAAAAAAAAAAAAAAAAAAAAAAAAAAAAAAAAAAAAAAAAAAAAAAAAAAAAAAAAAAAAAAAAAAAAAAAAAAAAAAAAAAAAAAAAAAAAAAAAAAAAAAAAAAAAAAAAAAAAAAAAAAAAAAAAAAAAAAAAAAAAAAAAAAAAAAAAAAAAAAAAAAAAAAAAAAAAAAAAAAAAAAAAAAAAAAAAAAAAAAAAAAAAAAAAAAAAAAAAAAAAAAAAAAAAAAAAAAAAAAAAAAAAAAAAAAAAAAAAAAAAAAAAAAAAAAAAAAAAAAAAAAAAAAAAAAAAAAAAAAAAAAAAAAAAAAAAAAAAAAAAAAAAAAAAAAAAAAAAAAAAAAAAAAAAAAAAAAAAAAAAAAAAAAAAAAAAAAAAAAAAAAAAAAAAAAAAAAAAAAAAAAAAAAAAAAAAAAAAAAAAAAAAAAAAAAAAAAAAAAAAAAAAAAAAAAAAAAAAAAAAAAAAAAAAAAAAAAAAAAAAAAAAAAAAAAAAAAAAAAAAAAAAAAAAAAAAAAAAAAAAAAAAAAAAAAAAAAAAAAAAAAAAAAAAAAAAAAAAAAAAAAAAAAAAAAAAAAAAAAAAAAAAAAAAAAAAAAAAAAAAAAAAAAAAAAAAAAAAAAAAAAAAAAAAAAAPZYQMkRJ3d1xej9/cnMf4VAq9yHV0+m2BKNLqNVhuZgukFchr3pEdBNy0LayoVdXIEON7IyxU/7GoP2piGZR/tsF+o=</c2pa:manifest></metadata>
<path d="M175 171L184 190L177 186L189 209L179 205L193 228L180 224L199 248L182 243L200 267L200 267L178 267L178 280L171 280L171 267L149 264L167 243L150 245L169 224L156 229L170 205L161 207L172 186L165 190ZM328 161L336 179L331 174L338 196L331 191L339 214L332 209L343 231L333 226L344 248L333 244L346 266L346 266L331 266L331 280L325 280L325 266L311 266L323 244L312 247L323 226L313 228L325 209L317 211L325 191L319 197L326 174L321 182ZM169 151L179 174L173 169L184 196L174 191L187 219L175 214L196 242L178 237L198 265L198 265L173 265L173 280L166 280L166 265L140 263L161 237L143 244L164 214L152 222L165 191L155 196L166 169L160 174ZM79 190L84 203L80 199L87 216L81 213L89 229L82 226L88 243L82 239L94 256L84 252L97 269L97 269L81 269L81 280L77 280L77 269L61 269L74 252L64 256L76 239L69 241L75 226L68 232L76 213L71 216L77 199L73 202ZM11 166L20 186L14 181L24 206L16 202L31 226L18 222L32 246L18 242L35 266L35 266L15 266L15 280L8 280L8 266L-12 268L5 242L-9 244L5 222L-8 224L7 202L-1 209L9 181L3 184ZM56 171L63 190L59 186L67 209L60 205L70 228L61 224L74 248L62 243L82 267L82 267L60 267L60 280L53 280L53 267L31 269L51 243L39 246L52 224L43 228L53 205L46 210L54 186L49 191ZM111 148L119 171L113 166L124 195L115 189L130 218L117 212L130 241L117 236L134 264L134 264L114 264L114 280L107 280L107 264L88 263L105 236L92 243L105 212L92 216L107 189L98 192L108 166L103 173ZM12 204L17 217L13 214L20 231L14 227L24 244L16 241L26 257L16 254L27 271L27 271L14 271L14 280L9 280L9 271L-3 269L7 254L-3 260L8 241L-1 244L9 227L3 230L10 214L6 218ZM371 153L378 175L373 170L384 198L375 192L389 220L376 215L391 242L377 237L392 265L392 265L374 265L374 280L367 280L367 265L349 262L364 237L350 242L365 215L352 222L366 192L357 196L368 170L363 177ZM394 193L400 209L396 205L404 224L397 220L406 239L398 236L408 254L399 251L414 270L414 270L397 270L397 280L391 280L391 270L374 272L389 251L380 253L390 236L382 240L391 220L384 223L392 205L388 211ZM244 190L251 206L246 203L255 222L247 218L257 238L248 234L262 253L250 250L264 269L264 269L247 269L247 280L241 280L241 269L225 268L239 250L227 254L240 234L231 236L241 218L234 222L242 203L237 203ZM363 141L374 166L367 160L377 190L368 185L381 215L369 209L391 239L372 233L390 263L390 263L367 263L367 280L359 280L359 263L337 264L354 233L336 242L357 209L345 217L359 185L349 187L360 160L352 166ZM187 159L197 180L190 175L200 202L191 197L205 223L193 218L208 244L194 239L214 265L214 265L191 265L191 280L184 280L184 265L161 265L181 239L166 246L182 218L170 224L183 197L175 203L184 175L178 178ZM275 147L285 170L278 165L293 194L280 188L297 217L282 212L302 241L283 235L303 264L303 264L279 264L279 280L270 280L270 264L247 265L266 235L247 241L267 212L252 216L269 188L257 194L271 165L264 172ZM407 148L417 172L410 166L423 195L412 189L429 218L414 213L434 241L416 236L438 264L438 264L411 264L411 280L403 280L403 264L376 264L398 236L380 238L400 213L385 215L402 189L391 194L404 166L397 173ZM79 161L88 182L82 177L91 203L83 198L95 224L84 219L98 245L85 240L107 266L107 266L82 266L82 280L76 280L76 266L51 267L73 240L60 243L74 219L63 225L75 198L67 200L76 177L70 185ZM0 266Q98 256 195 266T390 266V280H0Z" fill="#24143a"/>
<path d="M91 85L107 119L96 111L111 153L98 146L117 188L100 180L123 222L101 214L130 257L130 257L97 257L97 280L86 280L86 257L53 255L81 214L60 222L83 180L66 189L85 146L72 151L86 111L75 117ZM166 68L179 105L170 97L186 143L172 134L198 180L176 171L206 217L179 209L216 255L216 255L172 255L172 280L159 280L159 255L115 256L153 209L125 219L155 171L133 182L159 134L145 145L161 97L153 104ZM90 67L106 104L95 96L112 142L97 133L118 179L99 171L122 217L100 208L137 254L137 254L96 254L96 280L84 280L84 254L44 257L80 208L59 219L81 171L62 178L84 133L69 141L85 96L75 104ZM277 99L289 131L281 124L297 163L283 155L301 195L285 187L308 226L287 219L318 258L318 258L283 258L283 280L272 280L272 258L236 258L267 219L246 226L269 187L253 195L271 155L257 161L273 124L265 132ZM36 106L45 132L39 125L50 157L41 150L55 183L42 176L58 208L43 201L67 234L46 227L64 259L64 259L41 259L41 280L32 280L32 259L8 261L27 227L6 231L29 201L14 209L30 176L17 185L32 150L23 154L33 125L27 130ZM340 90L351 118L344 110L357 146L346 138L358 173L346 166L363 201L348 194L366 229L348 222L374 257L374 257L345 257L345 280L336 280L336 257L307 259L332 222L315 232L333 194L317 203L335 166L323 176L335 138L324 147L337 110L330 120ZM71 92L85 125L75 118L92 158L78 151L96 191L79 184L105 224L82 217L107 257L107 257L76 257L76 280L66 280L66 257L35 255L60 217L37 222L63 184L47 189L64 151L50 157L67 118L57 124ZM257 99L268 131L260 123L275 163L262 155L278 194L263 187L284 226L265 219L291 258L291 258L262 258L262 280L252 280L252 258L222 259L248 219L229 225L250 187L236 197L251 155L239 160L253 123L246 130ZM0 274Q98 264 195 274T390 274V280H0Z" fill="#0a0612"/>
</svg>